<?xml version="1.0" encoding="utf-8"?>
<!-- Generator: Adobe Illustrator 24.2.3, SVG Export Plug-In . SVG Version: 6.00 Build 0)  -->
<svg version="1.1" id="Layer_1" xmlns="http://www.w3.org/2000/svg" xmlns:xlink="http://www.w3.org/1999/xlink" x="0px" y="0px"
	 viewBox="0 0 617.9 595.3" style="enable-background:new 0 0 617.9 595.3;" xml:space="preserve">
<style type="text/css">
	.st0{fill:#FFFFFF;}
</style>
<g>
	
		<rect x="168.4" y="211.8" transform="matrix(0.7071 -0.7071 0.7071 0.7071 -222.3282 265.5487)" class="st0" width="82" height="378.6"/>
	
		<rect x="15.2" y="154.4" transform="matrix(0.7071 -0.7071 0.7071 0.7071 -73.3604 197.7897)" class="st0" width="373.8" height="66"/>
	
		<rect x="407.8" y="76.2" transform="matrix(0.7071 -0.7071 0.7071 0.7071 -26.7319 381.3682)" class="st0" width="78.4" height="293.6"/>
	
		<rect x="390.5" y="270.1" transform="matrix(0.7071 -0.7071 0.7071 0.7071 -117.6142 404.3654)" class="st0" width="77.7" height="148.2"/>
	
		<rect x="322.3" y="343.1" transform="matrix(0.7071 -0.7071 0.7071 0.7071 -187.5526 377.2505)" class="st0" width="78.7" height="143.8"/>
	<polygon class="st0" points="197.7,447.4 145.4,395.1 203.4,337.1 311.8,228.6 364.2,281 255.7,389.4 	"/>
</g>
</svg>
