<svg width="42" height="19" viewBox="0 0 42 19" fill="none" xmlns="http://www.w3.org/2000/svg">
<path d="M32.275 -8.17266e-05C29.815 -8.17266e-05 27.4917 0.988763 25.8346 2.70159L13.825 13.7202C12.7317 14.8503 11.2796 15.4683 9.725 15.4683C6.53042 15.4683 3.91667 12.8019 3.91667 9.4999C3.91667 6.19786 6.53042 3.53151 9.725 3.53151C11.2796 3.53151 12.7317 4.14954 13.8933 5.35028L15.8238 7.11607L18.4375 4.74991L16.2508 2.78988C15.3953 1.90226 14.3782 1.19869 13.2581 0.719816C12.1379 0.240943 10.9371 -0.00373637 9.725 -8.17266e-05C4.63417 -8.17266e-05 0.5 4.27314 0.5 9.4999C0.5 14.7267 4.63417 18.9999 9.725 18.9999C12.185 18.9999 14.5083 18.011 16.1654 16.2982L28.175 5.27965C29.2683 4.14954 30.7204 3.53151 32.275 3.53151C35.4696 3.53151 38.0833 6.19786 38.0833 9.4999C38.0833 12.8019 35.4696 15.4683 32.275 15.4683C30.7375 15.4683 29.2683 14.8503 28.1067 13.6495L26.125 11.8661L23.5625 14.2322L25.7492 16.2099C26.607 17.0931 27.625 17.7926 28.7448 18.2683C29.8646 18.744 31.0643 18.9866 32.275 18.9822C37.3658 18.9822 41.5 14.7267 41.5 9.4999C41.5 4.20251 37.3658 -8.17266e-05 32.275 -8.17266e-05Z" fill="#02E4C0"/>
</svg>
